<?xml version="1.0" encoding="utf-8"?>
<!-- Generator: Adobe Illustrator 23.0.5, SVG Export Plug-In . SVG Version: 6.00 Build 0)  -->
<svg version="1.1" id="圖層_1" xmlns="http://www.w3.org/2000/svg" xmlns:xlink="http://www.w3.org/1999/xlink" x="0px" y="0px"
	 viewBox="0 0 1600 1200" style="enable-background:new 0 0 1600 1200;" xml:space="preserve">
<style type="text/css">
	.st0{fill:none;stroke:#3756A5;stroke-width:5;stroke-miterlimit:10;}
	.st1{fill:none;stroke:#DE1718;stroke-width:4.8309;stroke-miterlimit:10;}
</style>
<image style="overflow:visible;" width="683" height="411" xlink:href="28609238.jpg"  transform="matrix(2.0999 0 0 2.0999 93.8356 168.4661)">
</image>
<path class="st0" d="M1361.3,462c0,0-12.3-26-64.4-34.2s-170.3,12.1-198.6,9.6s-153.4-23.3-201.4-17.8c-47.9,5.5-131.5,37-131.5,37
	s-111,27.4-121.9,57.5c-11,30.1-16.4,106.8,0,106.8s20.5-8.2,20.5-8.2s180.8-49.5,186.3-71.2c5.5-21.7-90.3-62.8-61.6-71.2
	c28.7-8.5,71.2-26,106.8-31.5c35.6-5.5,145.4,20,201.4,16.4s174-13.7,195.9-12.3c21.9,1.4,57.5,24.7,57.5,24.7"/>
<path class="st1" d="M839.1,541.5c0,0-101-32.9-111.3-11c-10.2,21.9-10.2,24.7,0,38.4c10.2,13.7,36.8-20.9,55.6-12.3
	c18.8,8.6,21.7,37,8.6,54.8s-41.2,37-64.2,37c-23,0-46-15.1-46-68.5c0-53.4,32-111,24.3-127.4S692.1,436,692.1,436"/>
</svg>
